<svg width="20" height="20" viewBox="0 0 20 20" fill="none" xmlns="http://www.w3.org/2000/svg">
<path d="M12.75 13.9167L13.9167 12.75L10.8333 9.66666V5.83332H9.16666V10.3333L12.75 13.9167ZM9.99999 18.3333C8.84721 18.3333 7.76388 18.1146 6.74999 17.6771C5.7361 17.2396 4.85416 16.6458 4.10416 15.8958C3.35416 15.1458 2.76041 14.2639 2.32291 13.25C1.88541 12.2361 1.66666 11.1528 1.66666 9.99999C1.66666 8.84721 1.88541 7.76388 2.32291 6.74999C2.76041 5.7361 3.35416 4.85416 4.10416 4.10416C4.85416 3.35416 5.7361 2.76041 6.74999 2.32291C7.76388 1.88541 8.84721 1.66666 9.99999 1.66666C11.1528 1.66666 12.2361 1.88541 13.25 2.32291C14.2639 2.76041 15.1458 3.35416 15.8958 4.10416C16.6458 4.85416 17.2396 5.7361 17.6771 6.74999C18.1146 7.76388 18.3333 8.84721 18.3333 9.99999C18.3333 11.1528 18.1146 12.2361 17.6771 13.25C17.2396 14.2639 16.6458 15.1458 15.8958 15.8958C15.1458 16.6458 14.2639 17.2396 13.25 17.6771C12.2361 18.1146 11.1528 18.3333 9.99999 18.3333ZM9.99999 16.6667C11.8472 16.6667 13.4201 16.0174 14.7187 14.7187C16.0174 13.4201 16.6667 11.8472 16.6667 9.99999C16.6667 8.15277 16.0174 6.57985 14.7187 5.28124C13.4201 3.98263 11.8472 3.33332 9.99999 3.33332C8.15277 3.33332 6.57985 3.98263 5.28124 5.28124C3.98263 6.57985 3.33332 8.15277 3.33332 9.99999C3.33332 11.8472 3.98263 13.4201 5.28124 14.7187C6.57985 16.0174 8.15277 16.6667 9.99999 16.6667Z" fill="#F7AC25"/>
</svg>
